<?xml version="1.0" encoding="iso-8859-1"?>
<!-- Generator: Adobe Illustrator 19.0.0, SVG Export Plug-In . SVG Version: 6.00 Build 0)  -->
<svg xmlns="http://www.w3.org/2000/svg" xmlns:xlink="http://www.w3.org/1999/xlink" version="1.1" id="Layer_1" x="0px" y="0px" viewBox="0 0 512 512" style="enable-background:new 0 0 512 512;" xml:space="preserve" width="512px" height="512px">
<g transform="translate(1 1)">
	<g>
		<g>
			<path d="M80.067,173.933c-21.333,0-38.4,12.8-38.4,29.867s17.067,29.867,38.4,29.867c21.333,0,38.4-12.8,38.4-29.867     S101.4,173.933,80.067,173.933z M80.067,216.6c-12.8,0-21.333-6.827-21.333-12.8S67.267,191,80.067,191     c12.8,0,21.333,6.827,21.333,12.8S92.867,216.6,80.067,216.6z" fill="#FFFFFF"/>
			<path d="M496.803,164.405l9.077-22.045c0.853-3.413,0.853-6.827,0-9.387c-1.707-2.56-4.267-5.12-6.827-5.973l-88.747-36.693     c-5.973-1.707-12.8,0.853-15.36,6.827l-1.17,2.926c-1.485-6.011-2.243-12.386-2.243-19.139c0-19.627-15.36-34.987-34.987-34.987     H253.293c-17.92,0-32.427,14.507-31.573,32.427v3.413c0,10.24-2.56,19.627-6.827,27.307c-4.267,5.973-7.68,9.387-13.653,10.24     L87.462,139.8h-0.569l-13.653,2.56C29.72,151.747-1,191-1,234.52v183.467C-1,434.2,11.8,447,28.013,447h107.52h98.133     c0.144,0.069,0.289,0.133,0.433,0.202c17.643,8.766,37.111,14.412,57.69,16.221c0.121,0.011,0.242,0.022,0.363,0.032     c1.285,0.11,2.575,0.205,3.869,0.285c0.336,0.021,0.67,0.045,1.007,0.064c1.148,0.064,2.301,0.112,3.456,0.152     c0.393,0.014,0.784,0.034,1.178,0.045c1.508,0.041,3.02,0.066,4.538,0.066c1.521,0,3.037-0.025,4.548-0.067     c0.362-0.01,0.722-0.029,1.084-0.041c1.211-0.041,2.42-0.093,3.624-0.161c0.24-0.014,0.48-0.031,0.719-0.046     c23.043-1.397,44.782-7.589,64.227-17.606H485.4c6.827,0,25.6,0,25.6-145.067C511,212.135,503.854,177.736,496.803,164.405z      M410.307,108.227l78.507,32.427l-5.656,13.736l-72.851-29.95c-2.205-0.945-4.176-2.009-5.959-3.444L410.307,108.227z      M28.013,429.933c-6.827,0-11.947-5.12-11.947-11.947V234.52c0-35.84,25.6-67.413,60.587-75.093l14.222-2.56h18.204l15.36,31.573     c5.973,11.947,5.973,26.453,0,38.4c-3.413,8.533-5.973,17.92-5.973,27.307v175.787H28.013z M302.317,446.948     c-20.361-0.533-39.664-5.254-57.09-13.322c-1.875-0.904-3.74-1.839-5.587-2.839l-1.707-0.853h-0.121     c-45.661-24.412-76.679-72.53-76.679-128c0-80.213,64.853-145.067,145.067-145.067c44.541,0,84.338,20.004,110.933,51.523v0.53     l1.707,1.707c0.822,0.924,1.616,1.876,2.391,2.847c0.242,0.315,0.485,0.629,0.725,0.946c0.233,0.301,0.461,0.607,0.69,0.912     c0.576,0.774,1.144,1.554,1.705,2.339c4.257,6.064,7.912,12.73,11.555,19.409l2.56,5.12h0.003     c8.222,18.21,12.797,38.43,12.797,59.733c0,55.47-31.019,103.588-76.679,128h-0.121l-1.707,0.853     c-4.938,2.568-9.877,4.801-14.846,6.739c-14.914,5.68-31.008,8.981-47.826,9.422c-1.289,0.031-2.583,0.053-3.887,0.053     C304.9,447,303.607,446.978,302.317,446.948z M434.2,202.093c0-1.707,1.707-3.413,4.267-3.413h16.213c2.56,0,5.12,2.56,5.12,5.12     v16.213c0,2.56-2.56,5.12-5.12,5.12h-5.636c-3.946-7.33-8.442-14.319-13.429-20.916     C435.143,203.509,434.672,202.801,434.2,202.093z M482.84,429.933h-77.078c38.086-29.657,62.572-75.946,62.572-128     c0-21.146-4.044-41.34-11.395-59.856c10.954-1.185,19.983-10.823,20.782-21.21v-16.213c0-11.947-10.24-22.187-22.187-22.187     H439.32c-6.249,0-12.028,2.805-16.122,7.188C393.7,158.923,352.201,139.8,306.2,139.8c-89.6,0-162.133,72.533-162.133,162.133     c0,52.054,24.486,98.343,62.572,128h-71.105V254.147c0-6.827,0.853-13.653,4.267-19.627c8.533-17.067,8.533-36.693,0-53.76     l-15-30l79.853-14.374c11.093-2.56,18.773-8.533,24.747-18.773c5.12-10.24,8.533-22.187,8.533-35.84V78.36     c0-8.533,6.827-15.36,15.36-15.36h103.253c10.24,0,17.92,7.68,17.92,17.92c0,12.8,2.56,23.893,6.827,34.987     c1.02,2.243,2.142,4.535,3.426,6.794l-0.013,0.033l2.56,4.267c0.317,0.37,0.635,0.737,0.952,1.1     c3.05,4.095,6.921,7.824,12.076,10.64c1.284,0.736,2.623,1.382,4.038,1.913l78.991,33.26     C498.198,201.377,498.036,404.606,482.84,429.933z" fill="#FFFFFF"/>
			<path d="M425.667,301.933c0-65.707-53.76-119.467-119.467-119.467s-119.467,53.76-119.467,119.467S240.493,421.4,306.2,421.4     S425.667,367.64,425.667,301.933z M203.8,301.933c0-56.32,46.08-102.4,102.4-102.4s102.4,46.08,102.4,102.4     c0,56.32-46.08,102.4-102.4,102.4S203.8,358.253,203.8,301.933z" fill="#FFFFFF"/>
			<path d="M359.96,330.093l-34.133,34.133c-3.413,3.413-3.413,8.533,0,11.947c1.707,1.707,3.413,2.56,5.973,2.56     c2.56,0,4.267-0.853,5.973-2.56l34.133-34.133c3.413-3.413,3.413-8.533,0-11.947C368.493,326.68,363.373,326.68,359.96,330.093z" fill="#FFFFFF"/>
			<path d="M363.373,295.96c-3.413-3.413-8.533-3.413-11.947,0l-59.733,59.733c-3.413,3.413-3.413,8.533,0,11.947     c1.707,1.707,3.413,2.56,5.973,2.56s4.267-0.853,5.973-2.56l59.733-59.733C366.787,304.493,366.787,299.373,363.373,295.96z" fill="#FFFFFF"/>
			<path d="M342.04,80.067h-71.68c-8.533,0-15.36,6.827-15.36,15.36v11.947c0,8.533,6.827,15.36,15.36,15.36h71.68     c8.533,0,15.36-6.827,15.36-15.36V95.427C357.4,86.893,350.573,80.067,342.04,80.067z M340.333,105.667h-68.267v-8.533h68.267     V105.667z" fill="#FFFFFF"/>
			<path d="M306.2,319c5.12,0,8.533-3.413,8.533-8.533s-3.413-8.533-8.533-8.533s-8.533,3.413-8.533,8.533S301.08,319,306.2,319z" fill="#FFFFFF"/>
		</g>
	</g>
</g>
<g>
</g>
<g>
</g>
<g>
</g>
<g>
</g>
<g>
</g>
<g>
</g>
<g>
</g>
<g>
</g>
<g>
</g>
<g>
</g>
<g>
</g>
<g>
</g>
<g>
</g>
<g>
</g>
<g>
</g>
</svg>
